<?xml version="1.0" encoding="utf-8"?>
<!-- Generator: Adobe Illustrator 28.5.0, SVG Export Plug-In . SVG Version: 9.03 Build 54727)  -->
<svg version="1.1" xmlns="http://www.w3.org/2000/svg" xmlns:xlink="http://www.w3.org/1999/xlink" x="0px" y="0px"
	 viewBox="0 0 400 710" style="enable-background:new 0 0 400 710;" xml:space="preserve">
<style type="text/css">
	.st6{fill:#FFFFFF;}
	.st21{opacity:0.6;fill:#D3F6F4;}
	.st22{fill:#B8DEDA;}
	.st1{fill:#1D1D1D;}
	.st9{display:none;}
	.st10{display:inline;}
	.st26{fill:#1D1D1B;}
	.st27{fill:#1D1D1D;stroke:#1D1D1D;stroke-width:0.5;stroke-miterlimit:10;}
	.st2{fill:none;stroke:#1D1D1D;stroke-linecap:round;stroke-linejoin:round;}
	.st29{fill:#8D8786;}
	.st30{display:inline;fill:#FFFFFF;}
</style>
<g id="Background">
	<rect x="0.29" class="st6" width="400.21" height="710"/>
	<path class="st21" d="M0.29,710h400V239.11c0,0-100.48,82.02-216.06,30.45C68.2,217.78,0.29,286.98,0.29,286.98V710z"/>
	<path class="st22" d="M0.29,710h400V333.1c-55.47-27.28-126.88-44.76-225.23-14.43c-107,33-172.26-3.34-174.77-2.5V710z"/>
	<g id="Full_x5F_off" class="st9">
		<g class="st10">
			<g>
				<polygon class="st1" points="365.75,666.52 368.05,666.52 368.05,673.92 360.65,673.92 360.65,671.62 365.75,671.62 				"/>
			</g>
			<g>
				<polygon class="st1" points="380.65,671.62 380.65,673.92 373.25,673.92 373.25,666.52 375.55,666.52 375.55,671.62 				"/>
			</g>
			<g>
				<polygon class="st1" points="375.55,686.52 373.25,686.52 373.25,679.12 380.65,679.12 380.65,681.42 375.55,681.42 				"/>
			</g>
			<g>
				<polygon class="st1" points="360.65,681.42 360.65,679.12 368.05,679.12 368.05,686.52 365.75,686.52 365.75,681.42 				"/>
			</g>
		</g>
	</g>

</g>
</svg>
